<?xml version="1.0" encoding="utf-8"?>
<!-- Generator: Adobe Illustrator 17.1.0, SVG Export Plug-In . SVG Version: 6.00 Build 0)  -->
<!DOCTYPE svg PUBLIC "-//W3C//DTD SVG 1.1//EN" "http://www.w3.org/Graphics/SVG/1.1/DTD/svg11.dtd">
<svg version="1.1" id="Layer_1" xmlns="http://www.w3.org/2000/svg" xmlns:xlink="http://www.w3.org/1999/xlink" x="0px" y="0px"
	 viewBox="0 0 345.7 35.7" enable-background="new 0 0 345.7 35.7" xml:space="preserve">
<path fill="#FFFFFF" d="M190.7,23.7h0.7c0.5,0,0.8-0.1,0.8-0.6c0-0.5-0.4-0.5-0.8-0.5h-0.7V23.7z M189.9,22h1.5c1,0,1.5,0.3,1.5,1.2
	c0,0.7-0.4,1-1,1.1l1,1.7h-0.8l-1-1.7h-0.5V26h-0.7V22z M191.3,26.8c1.5,0,2.7-1.2,2.7-2.9c0-1.7-1.2-2.9-2.7-2.9
	c-1.5,0-2.7,1.2-2.7,2.9C188.6,25.6,189.8,26.8,191.3,26.8 M191.3,20.3c1.8,0,3.5,1.5,3.5,3.7c0,2.2-1.6,3.7-3.5,3.7
	c-1.8,0-3.5-1.5-3.5-3.7C187.8,21.7,189.4,20.3,191.3,20.3"/>
<g>
	<path fill="#FFFFFF" d="M107.5,0h-9c-2,0-3.7,1.7-3.7,3.7c0,2.1,1.7,3.7,3.7,3.7h0.4l1.8,4.7l1.7-4.7h5.2c2,0,3.7-1.7,3.7-3.7
		C111.2,1.7,109.6,0,107.5,0z M107.5,5.8h-6.1l-0.8,3l-0.7-3h-1.4c-1.1,0-2.1-0.9-2.1-2.1c0-1.2,0.9-2.1,2.1-2.1h9
		c1.1,0,2.1,0.9,2.1,2.1C109.6,4.9,108.6,5.8,107.5,5.8z"/>
	<g>
		<path fill="#FFFFFF" d="M175,4.8h5.3v6.4h4.3v3.6h-4.3v7.7c0,1.3,0.4,1.7,1.8,1.7c0.9,0,1.7-0.1,2.6-0.1v3.6c-1,0.1-3,0.3-4.2,0.3
			c-5,0-5.5-1.9-5.5-4.9v-8.3h-3.3v-3.6h3.3V4.8z"/>
		<path fill="#FFFFFF" d="M39.8,18.3c0-2.3-1.2-3.4-3.6-3.4c-2.5,0-4.6,1.3-4.6,4.8v7.9h-5.3V11.2h5.1v2.4h0.1
			c1-1.4,3.5-2.8,6.6-2.8c2.7,0,6.9,1.1,6.9,5.9v10.9h-5.3V18.3z"/>
		<path fill="#FFFFFF" d="M63.5,11.2h5.1v15.1c0,5.7-3.6,7.8-10.4,7.8c-4,0-9.4-0.5-9.9-5.4H54c0.3,1.3,1.4,2.1,4.4,2.1
			c2.6,0,4.9-0.7,4.9-4.7v-1.3c-1.5,1.7-3.8,2.4-6.4,2.4c-6.3,0-9.2-4-9.2-8.2c0-4.5,2.9-8.2,9.6-8.2c2.4,0,4.8,0.7,6.1,2.4h0.1
			V11.2z M58.2,23.6c2.4,0,5.1-0.7,5.1-4.5c0-3.8-2.7-4.5-5.1-4.5c-2.3,0-5.1,0.7-5.1,4.5C53.2,22.8,55.9,23.6,58.2,23.6z"/>
		<rect x="71.9" y="5.4" fill="#FFFFFF" width="5.3" height="3.8"/>
		<rect x="71.9" y="11.2" fill="#FFFFFF" width="5.3" height="16.4"/>
		<path fill="#FFFFFF" d="M156.9,22.5c0.2,1.4,1.2,2.3,4,2.3c2.4,0,3.8-0.6,3.8-1.8c0-0.9-0.5-1.3-3-1.7l-4.8-0.7
			c-3.4-0.5-5.3-1.5-5.3-4.7c0-4.4,4.4-5.5,8.8-5.5c7.4,0,9.2,2.5,9.6,5.5h-5.8c-0.3-1.7-2.1-2.2-3.6-2.2c-1.4,0-3.5,0.1-3.5,1.7
			c0,0.8,0.4,1.3,2.7,1.5l3.7,0.4c5.4,0.6,7.1,2.2,7.1,5.1c0,4.9-5.4,5.6-10,5.6c-6.1,0-9.2-1.8-9.5-5.7H156.9z"/>
		<path fill="#FFFFFF" d="M100.6,22.7c-1.5,3.9-5.2,5.5-10.1,5.5c-6.4,0-10.7-2.6-10.7-8.8c0-6.2,4.3-8.8,10.7-8.8
			c7,0,10.4,3.6,10.4,9.8v0.5H85.4v0.1c0,1.6,1.6,4,5.2,4c2.1,0,3.6-0.7,4.4-2.1H100.6z M95.4,17.7L95.4,17.7c0-0.9-1.1-3.7-5-3.7
			c-4.2,0-5.1,3.3-5.1,3.6v0.1H95.4z"/>
		<path fill="#FFFFFF" d="M108.1,22.5c0.2,1.4,1.2,2.3,3.9,2.3c2.4,0,3.8-0.6,3.8-1.8c0-0.9-0.5-1.3-3-1.7l-4.8-0.7
			c-3.4-0.5-5.3-1.5-5.3-4.7c0-4.4,4.4-5.5,8.8-5.5c7.4,0,9.2,2.5,9.6,5.5h-5.8c-0.3-1.7-2-2.2-3.6-2.2c-1.4,0-3.5,0.1-3.5,1.7
			c0,0.8,0.4,1.3,2.7,1.5l3.7,0.4c5.4,0.6,7.1,2.2,7.1,5.1c0,4.9-5.4,5.6-10,5.6c-6.1,0-9.2-1.8-9.5-5.7H108.1z"/>
		<path fill="#FFFFFF" d="M142.9,5.4h5.3v3.8h-5.3V5.4z M142.9,11.2h5.3v16.4h-5.3V11.2z"/>
		<path fill="#FFFFFF" d="M133.4,2.8h5.3v24.8h-5.3V2.8z"/>
		<g>
			<path fill="#FFFFFF" d="M17.9,23.2H8l-1.7,4.5H0L9.4,5.8h7l9.4,21.9h-6.3L17.9,23.2z M13,10.5l-3.4,8.7h6.7L13,10.5z"/>
		</g>
	</g>
</g>
<path fill="#FFFFFF" d="M204.6,27.8V14.5h5.9c2.3,0,3.7,1.4,3.7,3.4c0,1.7-1.1,2.8-2.3,3.1c1.4,0.2,2.6,1.7,2.6,3.3
	c0,2.1-1.4,3.6-3.9,3.6H204.6z M212.6,18.1c0-1.2-0.8-2.2-2.3-2.2h-4v4.3h4C211.8,20.3,212.6,19.4,212.6,18.1z M212.8,24.1
	c0-1.2-0.8-2.3-2.5-2.3h-4.1v4.6h4.1C211.9,26.4,212.8,25.5,212.8,24.1z"/>
<path fill="#FFFFFF" d="M223.6,27.8v-1.4c-0.7,0.8-2,1.6-3.4,1.6c-2,0-3.1-1-3.1-3.1v-6.8h1.5v6.4c0,1.7,0.9,2.2,2.2,2.2
	c1.2,0,2.3-0.7,2.8-1.5v-7.1h1.5v9.7H223.6z"/>
<path fill="#FFFFFF" d="M227.3,26.6l0.8-1.1c0.6,0.7,1.9,1.4,3.2,1.4c1.5,0,2.3-0.7,2.3-1.7c0-2.3-6-0.9-6-4.5
	c0-1.5,1.3-2.8,3.6-2.8c1.7,0,2.8,0.6,3.6,1.4l-0.7,1c-0.6-0.7-1.6-1.2-2.9-1.2c-1.3,0-2.1,0.7-2.1,1.5c0,2.1,6,0.7,6,4.5
	c0,1.6-1.3,2.9-3.8,2.9C229.6,28.1,228.3,27.6,227.3,26.6z"/>
<path fill="#FFFFFF" d="M237.2,15.8c0-0.6,0.5-1,1-1c0.6,0,1,0.5,1,1c0,0.6-0.4,1-1,1C237.6,16.8,237.2,16.4,237.2,15.8z
	 M237.4,27.8v-9.7h1.5v9.7H237.4z"/>
<path fill="#FFFFFF" d="M248.5,27.8v-6.3c0-1.7-0.9-2.2-2.2-2.2c-1.2,0-2.3,0.7-2.9,1.5v7.1h-1.5v-9.7h1.5v1.4
	c0.7-0.8,2-1.6,3.5-1.6c2,0,3.1,1,3.1,3.1v6.8H248.5z"/>
<path fill="#FFFFFF" d="M252.4,23c0-2.8,2-5.1,4.8-5.1c2.9,0,4.6,2.3,4.6,5.2v0.4H254c0.1,1.8,1.4,3.3,3.5,3.3c1.1,0,2.2-0.4,3-1.2
	l0.7,1c-1,1-2.3,1.5-3.8,1.5C254.5,28.1,252.4,26,252.4,23z M257.2,19.2c-2.1,0-3.1,1.7-3.2,3.2h6.3C260.3,21,259.4,19.2,257.2,19.2
	z"/>
<path fill="#FFFFFF" d="M263.4,26.6l0.8-1.1c0.6,0.7,1.9,1.4,3.2,1.4c1.5,0,2.3-0.7,2.3-1.7c0-2.3-6-0.9-6-4.5
	c0-1.5,1.3-2.8,3.6-2.8c1.7,0,2.8,0.6,3.6,1.4l-0.7,1c-0.6-0.7-1.6-1.2-2.9-1.2c-1.3,0-2.1,0.7-2.1,1.5c0,2.1,6,0.7,6,4.5
	c0,1.6-1.3,2.9-3.8,2.9C265.7,28.1,264.4,27.6,263.4,26.6z"/>
<path fill="#FFFFFF" d="M272.7,26.6l0.8-1.1c0.6,0.7,1.9,1.4,3.2,1.4c1.5,0,2.3-0.7,2.3-1.7c0-2.3-6-0.9-6-4.5
	c0-1.5,1.3-2.8,3.6-2.8c1.7,0,2.8,0.6,3.6,1.4l-0.7,1c-0.6-0.7-1.6-1.2-2.9-1.2c-1.3,0-2.1,0.7-2.1,1.5c0,2.1,6,0.7,6,4.5
	c0,1.6-1.3,2.9-3.8,2.9C275,28.1,273.7,27.6,272.7,26.6z"/>
<path fill="#FFFFFF" d="M287.5,21.2c0-4.1,3-6.9,6.9-6.9c2.4,0,4,1.1,5.1,2.6l-1.4,0.8c-0.8-1.1-2.2-1.9-3.7-1.9
	c-2.9,0-5.1,2.2-5.1,5.4c0,3.2,2.2,5.4,5.1,5.4c1.5,0,2.9-0.8,3.7-1.9l1.4,0.8c-1.1,1.5-2.7,2.7-5.1,2.7
	C290.6,28.1,287.5,25.3,287.5,21.2z"/>
<path fill="#FFFFFF" d="M301,23c0-2.8,2-5.1,4.8-5.1c2.9,0,4.6,2.3,4.6,5.2v0.4h-7.8c0.1,1.8,1.4,3.3,3.5,3.3c1.1,0,2.2-0.4,3-1.2
	l0.7,1c-1,1-2.3,1.5-3.8,1.5C303,28.1,301,26,301,23z M305.7,19.2c-2.1,0-3.1,1.7-3.2,3.2h6.3C308.9,21,307.9,19.2,305.7,19.2z"/>
<path fill="#FFFFFF" d="M319.3,27.8v-6.3c0-1.7-0.9-2.2-2.2-2.2c-1.2,0-2.3,0.7-2.9,1.5v7.1h-1.5v-9.7h1.5v1.4
	c0.7-0.8,2-1.6,3.5-1.6c2,0,3.1,1,3.1,3.1v6.8H319.3z"/>
<path fill="#FFFFFF" d="M324.1,25.8v-6.3h-1.6v-1.3h1.6v-2.6h1.5v2.6h2v1.3h-2v6c0,0.7,0.3,1.2,1,1.2c0.4,0,0.8-0.2,1-0.4l0.4,1.1
	c-0.4,0.4-0.9,0.6-1.8,0.6C324.9,28.1,324.1,27.3,324.1,25.8z"/>
<path fill="#FFFFFF" d="M329.2,23c0-2.8,2-5.1,4.8-5.1c2.9,0,4.6,2.3,4.6,5.2v0.4h-7.8c0.1,1.8,1.4,3.3,3.5,3.3c1.1,0,2.2-0.4,3-1.2
	l0.7,1c-1,1-2.3,1.5-3.8,1.5C331.2,28.1,329.2,26,329.2,23z M333.9,19.2c-2.1,0-3.1,1.7-3.2,3.2h6.3C337.1,21,336.1,19.2,333.9,19.2
	z"/>
<path fill="#FFFFFF" d="M341,27.8v-9.7h1.5v1.5c0.8-1,1.9-1.8,3.2-1.8v1.5c-0.2,0-0.4,0-0.6,0c-0.9,0-2.2,0.8-2.6,1.5v6.8H341z"/>
</svg>
